<svg version="1.1" xmlns="http://www.w3.org/2000/svg" x="0" y="0" viewBox="0 368.782 1200 267.606" xml:space="preserve"><g class="puzzle-piece" fill="#29589D"><path d="M143.311 436.141c8.534-3.501 23.63-27.472 9.852-42.568-8.534-9.341-25.913-15.054-37.139-6.081-26.621 21.262 6.69 57.097 27.287 48.649zM215.449 501.177c-18.938-3.644-9.852-30.35-7.272-41.448 3.813-16.401-.312-14.955-15.649-17.507-11.936-1.998-24.367-3.09-36.416-1.29-26.536 3.983 1.531 24.254-6.109 40.839-6.535 14.147-28.79 15.267-38.387 3.94-12.077-14.231 13.651-36.969-1.233-40.994-10.362-2.778-30.151-2.665-39.464 3.161-10.546 6.605-5.188 21.191-4.522 32.419 1.035 17.464-8.037 26.394-35.325 20.88-16.925-3.431-23.771 33.566-7.002 44.17 16.117 10.191 45.871-8.591 48.55 12.828 1.46 11.779-6.861 22.822-9.951 34.205-4.267 15.706-5.84 24.083 12.304 24.637 5.528.17 50.804 2.282 53.157-4.097-8.094-13.424-13.211-42.795 9.611-43.972 31.455-1.588 25.26 24.778 19.434 45.913 0 0 44.411-3.316 63.888 3.855-2.353-19.533-19.491-45.431-12.97-65.021 6.393-19.25 42.44 5.104 43.985-28.208 1.799-39.152-19.024-20.923-36.629-24.31zm-56.793 108.299c.005-.019.006-.023 0 0zm-1.449 5.267a.679.679 0 0 0 .009-.032l-.009.032zm.39-1.419l.776-2.822-.776 2.822zm.868-3.156l.063-.229-.063.229z"/></g><g class="computing" fill="#8CAE50"><path d="M327.234 459.359c-3.969-2.977-9.341-4.976-16.514-4.976-7.158 0-12.729 1.999-16.712 4.976-3.983 2.978-6.577 6.96-8.363 10.943-2.197 4.579-3.388 9.951-3.586 15.721v86.171c.199 5.968 1.403 11.34 3.586 15.919 1.8 3.982 4.38 7.754 8.363 10.744 3.983 3.189 9.554 4.976 16.712 4.976 7.159 0 12.531-1.786 16.514-4.976 3.983-2.99 6.776-6.762 8.562-10.744 2.197-4.579 3.388-9.951 3.586-15.919v-20.115h-20.086v20.1c0 2.184-.198 3.983-.794 5.373-1.006 2.99-2.792 5.372-7.371 5.372-1.8 0-3.189-.596-4.182-1.588-1.999-2.183-3.189-4.976-3.388-9.157v-86.156c.198-1.984.397-3.785.992-5.373.992-2.579 2.778-5.372 6.563-5.372 2.183 0 3.983.596 4.976 1.588 2.197 2.396 3.189 5.174 3.189 9.157v20.101h20.101v-20.101c-.199-5.77-1.403-11.142-3.586-15.721-1.8-3.983-4.579-7.951-8.562-10.943zM396.097 459.359c-3.983-2.977-9.341-4.976-16.514-4.976-7.158 0-12.744 1.999-16.712 4.976-3.983 2.978-6.578 6.96-8.363 10.943-2.197 4.579-3.388 9.951-3.586 15.721v86.156c.198 5.968 1.403 11.341 3.586 15.919 1.8 3.983 4.38 7.754 8.363 10.745 3.983 3.189 9.554 4.976 16.712 4.976s12.531-1.786 16.514-4.976c3.969-2.991 6.761-6.762 8.547-10.745 2.197-4.578 3.388-9.951 3.587-15.919v-86.156c-.199-5.77-1.403-11.142-3.587-15.721-1.786-3.983-4.564-7.951-8.547-10.943zm-9.356 112.821c0 2.184-.198 3.983-.793 5.373-.794 2.99-2.58 5.372-6.365 5.372-1.8 0-3.189-.596-4.182-1.588-1.999-2.183-2.991-4.976-2.991-9.157v-86.156c0-1.984.199-3.785.794-5.373.794-2.579 2.594-5.372 6.365-5.372 1.786 0 3.388.596 4.38 1.588 1.999 2.396 2.792 5.174 2.792 9.157v86.156zM464.138 522.836l-.992 7.768h-.397l-.992-7.768-12.73-66.864h-26.266v146.259h19.901v-98.106h1.192l.793 6.166 13.736 91.94v.014h9.129l13.735-91.939.794-6.167h1.191v98.092h19.902V455.972h-26.267zM540.557 455.972h-21.49v146.26h21.49V543.73c9.355 0 18.697-2.793 25.869-9.554 7.159-6.776 11.936-17.72 11.936-34.432 0-16.713-4.776-27.854-11.936-34.616-7.172-6.761-16.514-9.156-25.869-9.156zm13.154 61.294c-2.396 3.388-6.577 4.578-13.141 4.578v-43.972c6.577 0 10.745 1.588 13.141 5.175 2.382 3.571 2.977 9.341 2.977 17.506 0 8.15-.595 13.523-2.977 16.713zM624.743 572.18c0 2.184-.199 3.983-.794 5.373-.809 2.99-2.595 5.372-6.379 5.372-1.801 0-3.189-.596-4.182-1.588-1.984-2.183-2.977-4.976-2.977-9.157V455.972h-21.49V572.18c.198 5.968 1.403 11.341 3.587 15.919 1.786 3.983 4.38 7.754 8.349 10.745 3.983 3.189 9.555 4.976 16.713 4.976s12.53-1.786 16.514-4.976c3.97-2.991 6.762-6.762 8.548-10.745 2.197-4.578 3.388-9.951 3.586-15.919V455.972h-21.475V572.18zM654.383 478.057h20.299v124.174h21.49V478.057h20.299v-22.085h-62.088zM724.819 455.972h21.489v146.26h-21.489zM805.221 538.953h-1.191l-1.786-6.762-20.894-76.219h-19.108v146.273h19.703v-82.981h1.192l1.785 6.761 20.894 76.206h19.109V455.972h-19.704zM866.699 529.413v18.103h8.562v26.465c0 2.183-.198 3.983-.794 5.372-.794 2.991-2.58 5.372-6.364 5.372-1.801 0-3.189-.595-4.182-1.587-1.999-2.184-2.991-4.976-2.991-9.157v-87.957c0-1.984.198-3.785.794-5.373.794-2.579 2.58-5.372 6.364-5.372 1.786 0 3.389.596 4.381 1.588 1.998 2.396 2.792 5.174 2.792 9.157v22.481h21.476v-22.481c-.198-5.77-1.403-11.142-3.586-15.721-1.801-3.983-4.579-7.952-8.563-10.943-3.982-2.977-9.355-4.976-16.514-4.976s-12.729 1.999-16.713 4.976c-3.983 2.978-6.577 6.96-8.363 10.943-2.197 4.579-3.388 9.951-3.586 15.721v86.185c-.199 5.968.609 11.341 2.396 15.919 1.602 3.983 3.983 7.754 7.569 10.745 3.586 3.189 8.363 4.976 15.323 4.976s12.729-3.587 16.713-8.563l2.594 6.961h12.743v-72.833h-30.051z"/></g><g class="kids" fill="#29589D"><path d="M1005.19 455.986h-20.894l-17.903 48.748-.993 2.382h-.793v-51.144h-21.503v146.273h21.489v-51.739l4.975-11.936 1.191-2.99h.595l.595 2.99 14.927 63.675h20.895l-22.284-98.106zM1017.722 455.972h21.489v146.26h-21.489zM1072.041 455.972h-16.911v146.26h16.911c19.901 0 30.646-3.983 36.416-15.125 5.57-11.142 6.364-29.258 6.364-57.905 0-28.648-.794-46.963-6.364-58.104-5.769-11.143-16.515-15.126-36.416-15.126zm20.313 101.282c-.198 6.974-.992 12.147-1.984 15.521-2.197 7.173-6.379 7.967-13.735 7.967v-103.28c7.371 0 11.553.793 13.735 7.753.992 3.587 1.786 8.761 1.984 15.522.199 6.974.199 16.33.199 28.265 0 11.936 0 21.277-.199 28.252zM1165.767 521.858c-4.167-6.181-8.349-11.95-11.538-17.521-3.176-5.571-5.373-10.745-5.373-15.721 0-8.562 1.787-14.331 7.357-14.529 3.388 0 5.585 2.778 6.975 6.762 1.389 4.182 1.587 9.554 1.587 14.331l21.093-1.984c0-8.165-1.19-17.903-5.372-25.87-4.182-7.754-11.751-13.126-24.679-12.928-10.149.198-17.109 4.777-21.688 11.142-4.578 6.563-6.364 15.11-6.364 23.077 0 3.983.595 7.952 1.786 11.737 2.183 7.754 5.769 15.323 10.546 22.681a724.368 724.368 0 0 0 13.523 20.1c1.984 2.978 3.784 5.954 5.57 8.746 3.189 5.77 5.571 11.341 5.571 16.117 0 9.355-2.396 16.117-8.761 16.117-4.564 0-6.96-3.175-8.349-7.952-1.588-4.578-1.786-10.745-1.786-16.911l-21.093 1.984c0 10.943.992 21.504 5.372 29.456 4.381 7.967 12.134 13.141 25.87 13.141 11.751 0 19.108-4.38 23.687-11.142 4.578-6.775 6.166-15.919 6.166-25.671 0-7.952-2.58-15.522-6.364-22.879-3.785-7.357-8.761-14.926-13.736-22.283z"/></g></svg>